<svg width="33" height="24" viewBox="0 0 33 24" fill="none" xmlns="http://www.w3.org/2000/svg">
<path d="M26.1083 16.4306C26.3176 16.258 26.5422 16.1019 26.7782 15.9662C27.2172 15.753 27.674 15.5754 28.1422 15.437C28.7234 15.2226 29.307 15.0145 29.897 14.8267C30.1927 14.7417 30.482 14.6364 30.7637 14.5121C30.6368 14.337 30.4934 14.1758 30.3348 14.0286C29.6179 13.3625 28.7424 12.8905 27.792 12.6582C27.622 12.6126 27.438 12.6189 27.2743 12.5605V12.5618C27.1893 12.3791 27.1157 12.1913 27.0535 11.9997C26.6767 10.9135 26.3176 9.81982 25.9471 8.73227C25.5614 7.59411 25.2023 6.44578 24.781 5.31899C25.0145 5.39258 25.2645 5.39639 25.4992 5.32914C25.8177 5.19084 26.0156 4.86854 25.9953 4.52214C25.9928 3.80142 26.0055 3.07946 25.9852 2.35873H25.9864C26.0055 1.9933 25.7682 1.66341 25.4155 1.56697C25.1769 1.51368 24.9282 1.54159 24.71 1.64817C24.0438 1.9933 23.3675 2.32446 22.7229 2.70639L22.7217 2.70766C22.7102 1.78902 22.19 0.951586 21.3691 0.536653C20.9783 0.357745 20.5494 0.279076 20.1192 0.304454C19.5 0.304454 18.8808 0.308261 18.2616 0.305723L18.2629 0.306992C17.8632 0.257508 17.4927 0.522696 17.4102 0.916042C17.4064 1.12921 17.4901 1.33221 17.6411 1.48069C17.7934 1.62914 18.0002 1.70654 18.2121 1.69639C18.8656 1.69512 19.5203 1.69766 20.175 1.69512L20.1738 1.69639C20.5938 1.67609 20.9909 1.88799 21.2079 2.24834C21.3919 2.53256 21.3487 2.90559 21.1064 3.14288C20.911 3.33193 20.6496 3.43471 20.3768 3.42964C19.6028 3.43471 18.8288 3.42583 18.0548 3.43725H18.0561C17.7071 3.46897 17.4318 3.74812 17.4039 4.09704C17.4191 4.50687 17.7553 4.8317 18.1652 4.83423C18.6423 4.81647 19.1207 4.82789 19.599 4.82535C20.0216 4.84438 20.4454 4.8355 20.8666 4.79743C21.1496 4.7175 21.4198 4.59442 21.6647 4.43074C21.7776 4.92811 21.9426 5.41155 22.0669 5.90516C22.2763 6.70199 22.5186 7.48869 22.7204 8.28805C23.0528 9.24856 23.2381 10.2522 23.2736 11.2686C23.3015 12.3243 23.0668 13.3724 22.5897 14.3151C22.2674 14.9559 21.7903 15.504 21.2003 15.9101C20.6864 16.2666 20.0735 16.4519 19.448 16.4392C18.216 16.443 16.9827 16.4493 15.7505 16.4392V16.4379C14.521 16.2653 13.6188 15.1919 13.6607 13.951C13.7407 13.0843 14.2685 12.3636 14.6124 11.5884C11.864 11.5884 9.11565 11.5871 6.36729 11.5871C6.00439 11.6125 5.6453 11.5084 5.35221 11.294C3.71794 11.8764 2.36026 13.0527 1.54946 14.5868C1.17517 15.3164 0.955648 16.1157 0.902344 16.9342C0.904882 17.0534 0.956905 17.1664 1.04699 17.2463C1.13581 17.325 1.25508 17.363 1.37435 17.3504C3.67477 17.3491 5.97519 17.3554 8.27562 17.3453C8.46594 17.3529 8.65881 17.3402 8.84786 17.3656H8.84659C9.3592 17.4354 9.82614 17.6942 10.1586 18.0901C10.3553 18.3312 10.4707 18.6255 10.656 18.8743C10.84 19.1027 11.1242 19.2283 11.4173 19.2105C14.9345 19.2105 18.4517 19.2105 21.9703 19.2093C22.2659 19.2093 22.5539 19.1116 22.7887 18.9314C23.89 18.0914 25.0119 17.2782 26.1083 16.4306Z" fill="#01BF62"/>
<path d="M6.16106 10.4781C8.97539 10.4756 11.791 10.4832 14.6065 10.4807V10.4819C14.8679 10.4997 15.1306 10.4819 15.3881 10.4274C15.8208 10.3208 16.1672 9.99597 16.303 9.5709C16.5136 8.87811 16.1368 8.14218 15.4529 7.90743C15.1445 7.82242 14.8222 7.7945 14.5037 7.82369C11.6958 7.82876 8.88782 7.81481 6.08099 7.83511C5.52141 7.91504 5.06464 8.32235 4.92126 8.86923C4.84386 9.25116 4.93649 9.64829 5.17376 9.95665C5.41104 10.2662 5.7715 10.4566 6.16106 10.4781Z" fill="#01BF62"/>
<path d="M31.5516 17.0867C31.2788 16.5829 30.9006 16.1452 30.4426 15.8026C29.529 16.1477 28.6078 16.47 27.6828 16.7796H27.6815C27.207 16.97 26.7705 17.2466 26.3975 17.5968C25.4154 18.3441 24.4206 19.075 23.4766 19.8705C23.8915 22.0784 25.9115 23.6135 28.1498 23.4222C29.3197 23.3562 30.4046 22.7928 31.1304 21.8742C31.7572 21.1636 32.1023 20.2488 32.1011 19.3022C32.1188 18.5282 31.9284 17.763 31.5516 17.0867ZM28.2309 20.9375C27.7208 21.0542 27.1853 20.9489 26.759 20.6482C26.2502 20.2802 25.9748 19.6712 26.0319 19.0469C26.0776 18.6561 26.3022 18.3084 26.6385 18.1029C26.7882 18.5457 26.9278 18.9949 27.0965 19.4314C27.1815 19.6826 27.3795 19.8793 27.6307 19.963C27.8591 20.0214 28.1027 19.9605 28.2753 19.7993C28.4479 19.6369 28.5278 19.3996 28.4847 19.1662C28.3121 18.6053 28.0418 18.0775 27.8832 17.5116C28.2283 17.471 28.5747 17.5674 28.8501 17.778C29.2891 18.0991 29.5644 18.5964 29.6038 19.1395C29.6228 19.9859 29.0518 20.7332 28.2309 20.9375Z" fill="#01BF62"/>
<path d="M7.11712 23.2835C7.67414 23.1274 8.19311 22.8584 8.63975 22.4904C9.23866 21.9905 9.71193 21.3573 10.0228 20.6405C10.1002 20.4387 10.1598 20.2306 10.2296 20.0276C9.82485 19.718 9.50509 19.312 9.29701 18.8463C9.14982 18.5951 8.87827 18.4403 8.58645 18.4415C8.26162 18.4441 7.93553 18.4301 7.6107 18.4492C7.782 18.8679 7.79595 19.3323 7.65131 19.7599C7.50412 20.1596 7.22497 20.4971 6.86208 20.7191C6.44718 20.9666 5.95357 21.0427 5.4841 20.9336C4.79764 20.7483 4.27233 20.1976 4.12135 19.5036C4.06425 19.1483 4.1112 18.7842 4.25585 18.4542C3.39431 18.4327 2.53274 18.4555 1.67121 18.4428C1.60142 18.8273 1.58746 19.2193 1.62807 19.6076C1.72069 20.3943 2.0214 21.1429 2.49977 21.7748C3.07202 22.5108 3.86758 23.0411 4.76722 23.2847C5.53868 23.4789 6.34693 23.4776 7.11712 23.2835Z" fill="#01BF62"/>
</svg>
